<mxfile host="app.diagrams.net" modified="2022-05-14T02:27:06.734Z" agent="5.0 (Windows NT 10.0; Win64; x64) AppleWebKit/537.36 (KHTML, like Gecko) Chrome/101.0.4951.41 Safari/537.36" etag="hIUaXS6bgFIaSTq_hYKo" version="18.0.3" type="github">
  <diagram id="nP0LJQlEGBut2Yk2UIKq" name="Page-1">
    <mxGraphModel dx="1422" dy="762" grid="1" gridSize="10" guides="1" tooltips="1" connect="1" arrows="1" fold="1" page="1" pageScale="1" pageWidth="827" pageHeight="1169" math="0" shadow="0">
      <root>
        <mxCell id="0" />
        <mxCell id="1" parent="0" />
        <mxCell id="qyMsKyjULQePnSk6faZQ-6" style="edgeStyle=orthogonalEdgeStyle;rounded=0;orthogonalLoop=1;jettySize=auto;html=1;exitX=1;exitY=0.5;exitDx=0;exitDy=0;" parent="1" source="qyMsKyjULQePnSk6faZQ-1" target="qyMsKyjULQePnSk6faZQ-3" edge="1">
          <mxGeometry relative="1" as="geometry" />
        </mxCell>
        <mxCell id="qyMsKyjULQePnSk6faZQ-1" value="" style="rounded=0;whiteSpace=wrap;html=1;fillColor=#e1d5e7;strokeColor=#9673a6;" parent="1" vertex="1">
          <mxGeometry x="50" y="300" width="30" height="100" as="geometry" />
        </mxCell>
        <mxCell id="qyMsKyjULQePnSk6faZQ-121" style="edgeStyle=orthogonalEdgeStyle;rounded=0;orthogonalLoop=1;jettySize=auto;html=1;exitX=1;exitY=0.5;exitDx=0;exitDy=0;entryX=0;entryY=0.5;entryDx=0;entryDy=0;fontFamily=Times New Roman;endArrow=classic;endFill=1;strokeColor=#000000;" parent="1" source="qyMsKyjULQePnSk6faZQ-2" target="qyMsKyjULQePnSk6faZQ-24" edge="1">
          <mxGeometry relative="1" as="geometry" />
        </mxCell>
        <mxCell id="qyMsKyjULQePnSk6faZQ-2" value="" style="rounded=0;whiteSpace=wrap;html=1;fillColor=#e1d5e7;strokeColor=#9673a6;" parent="1" vertex="1">
          <mxGeometry x="250" y="300" width="30" height="100" as="geometry" />
        </mxCell>
        <mxCell id="qyMsKyjULQePnSk6faZQ-7" style="edgeStyle=orthogonalEdgeStyle;rounded=0;orthogonalLoop=1;jettySize=auto;html=1;exitX=1;exitY=0.5;exitDx=0;exitDy=0;entryX=0;entryY=0.5;entryDx=0;entryDy=0;" parent="1" source="qyMsKyjULQePnSk6faZQ-3" target="qyMsKyjULQePnSk6faZQ-4" edge="1">
          <mxGeometry relative="1" as="geometry" />
        </mxCell>
        <mxCell id="qyMsKyjULQePnSk6faZQ-117" value="" style="edgeStyle=orthogonalEdgeStyle;rounded=0;orthogonalLoop=1;jettySize=auto;html=1;fontFamily=Times New Roman;endArrow=baseDash;endFill=0;endSize=3;" parent="1" source="qyMsKyjULQePnSk6faZQ-3" target="qyMsKyjULQePnSk6faZQ-1" edge="1">
          <mxGeometry relative="1" as="geometry" />
        </mxCell>
        <mxCell id="qyMsKyjULQePnSk6faZQ-3" value="" style="rounded=0;whiteSpace=wrap;html=1;fillColor=#e1d5e7;strokeColor=#9673a6;" parent="1" vertex="1">
          <mxGeometry x="100" y="300" width="30" height="100" as="geometry" />
        </mxCell>
        <mxCell id="qyMsKyjULQePnSk6faZQ-8" style="edgeStyle=orthogonalEdgeStyle;rounded=0;orthogonalLoop=1;jettySize=auto;html=1;exitX=1;exitY=0.5;exitDx=0;exitDy=0;entryX=0;entryY=0.5;entryDx=0;entryDy=0;" parent="1" source="qyMsKyjULQePnSk6faZQ-4" target="qyMsKyjULQePnSk6faZQ-5" edge="1">
          <mxGeometry relative="1" as="geometry" />
        </mxCell>
        <mxCell id="qyMsKyjULQePnSk6faZQ-4" value="" style="rounded=0;whiteSpace=wrap;html=1;fillColor=#e1d5e7;strokeColor=#9673a6;" parent="1" vertex="1">
          <mxGeometry x="150" y="300" width="30" height="100" as="geometry" />
        </mxCell>
        <mxCell id="qyMsKyjULQePnSk6faZQ-9" style="edgeStyle=orthogonalEdgeStyle;rounded=0;orthogonalLoop=1;jettySize=auto;html=1;exitX=1;exitY=0.5;exitDx=0;exitDy=0;entryX=0;entryY=0.5;entryDx=0;entryDy=0;" parent="1" source="qyMsKyjULQePnSk6faZQ-5" target="qyMsKyjULQePnSk6faZQ-2" edge="1">
          <mxGeometry relative="1" as="geometry" />
        </mxCell>
        <mxCell id="qyMsKyjULQePnSk6faZQ-5" value="" style="rounded=0;whiteSpace=wrap;html=1;fillColor=#e1d5e7;strokeColor=#9673a6;" parent="1" vertex="1">
          <mxGeometry x="200" y="300" width="30" height="100" as="geometry" />
        </mxCell>
        <mxCell id="qyMsKyjULQePnSk6faZQ-12" value="" style="endArrow=classic;html=1;rounded=0;endWidth=8.333333333333334;shape=flexArrow;" parent="1" edge="1">
          <mxGeometry width="50" height="50" relative="1" as="geometry">
            <mxPoint x="80" y="349.5" as="sourcePoint" />
            <mxPoint x="50" y="349.5" as="targetPoint" />
          </mxGeometry>
        </mxCell>
        <mxCell id="qyMsKyjULQePnSk6faZQ-16" style="edgeStyle=orthogonalEdgeStyle;rounded=0;orthogonalLoop=1;jettySize=auto;html=1;exitX=0.5;exitY=0;exitDx=0;exitDy=0;entryX=0.5;entryY=1;entryDx=0;entryDy=0;fontFamily=Times New Roman;" parent="1" source="qyMsKyjULQePnSk6faZQ-15" target="qyMsKyjULQePnSk6faZQ-3" edge="1">
          <mxGeometry relative="1" as="geometry" />
        </mxCell>
        <mxCell id="qyMsKyjULQePnSk6faZQ-15" value="&lt;b&gt;&lt;font face=&quot;Times New Roman&quot;&gt;V&lt;sub&gt;0&lt;/sub&gt;&lt;/font&gt;&lt;/b&gt;" style="rounded=0;whiteSpace=wrap;html=1;fillColor=#e1d5e7;strokeColor=#9673a6;" parent="1" vertex="1">
          <mxGeometry x="100" y="430" width="30" height="30" as="geometry" />
        </mxCell>
        <mxCell id="qyMsKyjULQePnSk6faZQ-20" style="edgeStyle=orthogonalEdgeStyle;rounded=0;orthogonalLoop=1;jettySize=auto;html=1;exitX=0.5;exitY=0;exitDx=0;exitDy=0;entryX=0.5;entryY=1;entryDx=0;entryDy=0;fontFamily=Times New Roman;" parent="1" source="qyMsKyjULQePnSk6faZQ-17" target="qyMsKyjULQePnSk6faZQ-4" edge="1">
          <mxGeometry relative="1" as="geometry" />
        </mxCell>
        <mxCell id="qyMsKyjULQePnSk6faZQ-17" value="&lt;b&gt;&lt;font face=&quot;Times New Roman&quot;&gt;V&lt;span style=&quot;font-size: 10px;&quot;&gt;&lt;sub&gt;1&lt;/sub&gt;&lt;/span&gt;&lt;/font&gt;&lt;/b&gt;" style="rounded=0;whiteSpace=wrap;html=1;fillColor=#e1d5e7;strokeColor=#9673a6;" parent="1" vertex="1">
          <mxGeometry x="150" y="430" width="30" height="30" as="geometry" />
        </mxCell>
        <mxCell id="qyMsKyjULQePnSk6faZQ-21" style="edgeStyle=orthogonalEdgeStyle;rounded=0;orthogonalLoop=1;jettySize=auto;html=1;exitX=0.5;exitY=0;exitDx=0;exitDy=0;entryX=0.5;entryY=1;entryDx=0;entryDy=0;fontFamily=Times New Roman;" parent="1" source="qyMsKyjULQePnSk6faZQ-18" target="qyMsKyjULQePnSk6faZQ-5" edge="1">
          <mxGeometry relative="1" as="geometry" />
        </mxCell>
        <mxCell id="qyMsKyjULQePnSk6faZQ-18" value="&lt;b&gt;&lt;font face=&quot;Times New Roman&quot;&gt;V&lt;span style=&quot;font-size: 10px;&quot;&gt;&lt;sub&gt;2&lt;/sub&gt;&lt;/span&gt;&lt;/font&gt;&lt;/b&gt;" style="rounded=0;whiteSpace=wrap;html=1;fillColor=#e1d5e7;strokeColor=#9673a6;" parent="1" vertex="1">
          <mxGeometry x="200" y="430" width="30" height="30" as="geometry" />
        </mxCell>
        <mxCell id="qyMsKyjULQePnSk6faZQ-22" style="edgeStyle=orthogonalEdgeStyle;rounded=0;orthogonalLoop=1;jettySize=auto;html=1;exitX=0.5;exitY=0;exitDx=0;exitDy=0;entryX=0.5;entryY=1;entryDx=0;entryDy=0;fontFamily=Times New Roman;" parent="1" source="qyMsKyjULQePnSk6faZQ-19" target="qyMsKyjULQePnSk6faZQ-2" edge="1">
          <mxGeometry relative="1" as="geometry" />
        </mxCell>
        <mxCell id="qyMsKyjULQePnSk6faZQ-19" value="&lt;b&gt;&lt;font face=&quot;Times New Roman&quot;&gt;V&lt;span style=&quot;font-size: 10px;&quot;&gt;&lt;sub&gt;3&lt;/sub&gt;&lt;/span&gt;&lt;/font&gt;&lt;/b&gt;" style="rounded=0;whiteSpace=wrap;html=1;fillColor=#e1d5e7;strokeColor=#9673a6;" parent="1" vertex="1">
          <mxGeometry x="250" y="430" width="30" height="30" as="geometry" />
        </mxCell>
        <mxCell id="qyMsKyjULQePnSk6faZQ-23" style="edgeStyle=orthogonalEdgeStyle;rounded=0;orthogonalLoop=1;jettySize=auto;html=1;exitX=1;exitY=0.5;exitDx=0;exitDy=0;fillColor=#dae8fc;strokeColor=#000000;" parent="1" source="qyMsKyjULQePnSk6faZQ-24" target="qyMsKyjULQePnSk6faZQ-27" edge="1">
          <mxGeometry relative="1" as="geometry" />
        </mxCell>
        <mxCell id="qyMsKyjULQePnSk6faZQ-24" value="" style="rounded=0;whiteSpace=wrap;html=1;fillColor=#dae8fc;strokeColor=#6c8ebf;" parent="1" vertex="1">
          <mxGeometry x="330" y="300" width="30" height="100" as="geometry" />
        </mxCell>
        <mxCell id="qyMsKyjULQePnSk6faZQ-159" style="edgeStyle=orthogonalEdgeStyle;rounded=0;orthogonalLoop=1;jettySize=auto;html=1;exitX=1;exitY=0.5;exitDx=0;exitDy=0;entryX=0;entryY=0.5;entryDx=0;entryDy=0;fontFamily=Times New Roman;fontColor=#000000;endArrow=classic;endFill=1;strokeColor=#000000;" parent="1" source="qyMsKyjULQePnSk6faZQ-25" target="qyMsKyjULQePnSk6faZQ-144" edge="1">
          <mxGeometry relative="1" as="geometry" />
        </mxCell>
        <mxCell id="qyMsKyjULQePnSk6faZQ-25" value="" style="rounded=0;whiteSpace=wrap;html=1;fillColor=#dae8fc;strokeColor=#6c8ebf;" parent="1" vertex="1">
          <mxGeometry x="530" y="300" width="30" height="100" as="geometry" />
        </mxCell>
        <mxCell id="qyMsKyjULQePnSk6faZQ-26" style="edgeStyle=orthogonalEdgeStyle;rounded=0;orthogonalLoop=1;jettySize=auto;html=1;exitX=1;exitY=0.5;exitDx=0;exitDy=0;entryX=0;entryY=0.5;entryDx=0;entryDy=0;fillColor=#dae8fc;strokeColor=#000000;" parent="1" source="qyMsKyjULQePnSk6faZQ-27" target="qyMsKyjULQePnSk6faZQ-29" edge="1">
          <mxGeometry relative="1" as="geometry" />
        </mxCell>
        <mxCell id="qyMsKyjULQePnSk6faZQ-27" value="" style="rounded=0;whiteSpace=wrap;html=1;fillColor=#dae8fc;strokeColor=#6c8ebf;" parent="1" vertex="1">
          <mxGeometry x="380" y="300" width="30" height="100" as="geometry" />
        </mxCell>
        <mxCell id="qyMsKyjULQePnSk6faZQ-28" style="edgeStyle=orthogonalEdgeStyle;rounded=0;orthogonalLoop=1;jettySize=auto;html=1;exitX=1;exitY=0.5;exitDx=0;exitDy=0;entryX=0;entryY=0.5;entryDx=0;entryDy=0;fillColor=#dae8fc;strokeColor=#000000;" parent="1" source="qyMsKyjULQePnSk6faZQ-29" target="qyMsKyjULQePnSk6faZQ-31" edge="1">
          <mxGeometry relative="1" as="geometry" />
        </mxCell>
        <mxCell id="qyMsKyjULQePnSk6faZQ-29" value="" style="rounded=0;whiteSpace=wrap;html=1;fillColor=#dae8fc;strokeColor=#6c8ebf;" parent="1" vertex="1">
          <mxGeometry x="430" y="300" width="30" height="100" as="geometry" />
        </mxCell>
        <mxCell id="qyMsKyjULQePnSk6faZQ-30" style="edgeStyle=orthogonalEdgeStyle;rounded=0;orthogonalLoop=1;jettySize=auto;html=1;exitX=1;exitY=0.5;exitDx=0;exitDy=0;entryX=0;entryY=0.5;entryDx=0;entryDy=0;fillColor=#dae8fc;strokeColor=#000000;" parent="1" source="qyMsKyjULQePnSk6faZQ-31" target="qyMsKyjULQePnSk6faZQ-25" edge="1">
          <mxGeometry relative="1" as="geometry" />
        </mxCell>
        <mxCell id="qyMsKyjULQePnSk6faZQ-31" value="" style="rounded=0;whiteSpace=wrap;html=1;fillColor=#dae8fc;strokeColor=#6c8ebf;" parent="1" vertex="1">
          <mxGeometry x="480" y="300" width="30" height="100" as="geometry" />
        </mxCell>
        <mxCell id="qyMsKyjULQePnSk6faZQ-42" style="edgeStyle=orthogonalEdgeStyle;rounded=0;orthogonalLoop=1;jettySize=auto;html=1;exitX=0.5;exitY=0;exitDx=0;exitDy=0;entryX=0.5;entryY=1;entryDx=0;entryDy=0;fontFamily=Times New Roman;" parent="1" source="qyMsKyjULQePnSk6faZQ-34" target="qyMsKyjULQePnSk6faZQ-27" edge="1">
          <mxGeometry relative="1" as="geometry" />
        </mxCell>
        <mxCell id="qyMsKyjULQePnSk6faZQ-34" value="&lt;b&gt;&lt;font face=&quot;Times New Roman&quot;&gt;V&lt;sub&gt;0&lt;/sub&gt;&lt;/font&gt;&lt;/b&gt;" style="rounded=0;whiteSpace=wrap;html=1;fillColor=#dae8fc;strokeColor=#6c8ebf;" parent="1" vertex="1">
          <mxGeometry x="380" y="430" width="30" height="30" as="geometry" />
        </mxCell>
        <mxCell id="qyMsKyjULQePnSk6faZQ-43" style="edgeStyle=orthogonalEdgeStyle;rounded=0;orthogonalLoop=1;jettySize=auto;html=1;exitX=0.5;exitY=0;exitDx=0;exitDy=0;entryX=0.5;entryY=1;entryDx=0;entryDy=0;fontFamily=Times New Roman;" parent="1" source="qyMsKyjULQePnSk6faZQ-35" target="qyMsKyjULQePnSk6faZQ-29" edge="1">
          <mxGeometry relative="1" as="geometry" />
        </mxCell>
        <mxCell id="qyMsKyjULQePnSk6faZQ-35" value="&lt;b&gt;&lt;font face=&quot;Times New Roman&quot;&gt;V&lt;span style=&quot;font-size: 10px;&quot;&gt;&lt;sub&gt;3&lt;/sub&gt;&lt;/span&gt;&lt;/font&gt;&lt;/b&gt;" style="rounded=0;whiteSpace=wrap;html=1;fillColor=#dae8fc;strokeColor=#6c8ebf;" parent="1" vertex="1">
          <mxGeometry x="430" y="430" width="30" height="30" as="geometry" />
        </mxCell>
        <mxCell id="qyMsKyjULQePnSk6faZQ-44" style="edgeStyle=orthogonalEdgeStyle;rounded=0;orthogonalLoop=1;jettySize=auto;html=1;exitX=0.5;exitY=0;exitDx=0;exitDy=0;entryX=0.5;entryY=1;entryDx=0;entryDy=0;fontFamily=Times New Roman;" parent="1" source="qyMsKyjULQePnSk6faZQ-36" target="qyMsKyjULQePnSk6faZQ-31" edge="1">
          <mxGeometry relative="1" as="geometry" />
        </mxCell>
        <mxCell id="qyMsKyjULQePnSk6faZQ-36" value="&lt;b&gt;&lt;font face=&quot;Times New Roman&quot;&gt;V&lt;span style=&quot;font-size: 10px;&quot;&gt;&lt;sub&gt;1&lt;/sub&gt;&lt;/span&gt;&lt;/font&gt;&lt;/b&gt;" style="rounded=0;whiteSpace=wrap;html=1;fillColor=#dae8fc;strokeColor=#6c8ebf;" parent="1" vertex="1">
          <mxGeometry x="480" y="430" width="30" height="30" as="geometry" />
        </mxCell>
        <mxCell id="qyMsKyjULQePnSk6faZQ-45" style="edgeStyle=orthogonalEdgeStyle;rounded=0;orthogonalLoop=1;jettySize=auto;html=1;exitX=0.5;exitY=0;exitDx=0;exitDy=0;entryX=0.5;entryY=1;entryDx=0;entryDy=0;fontFamily=Times New Roman;" parent="1" source="qyMsKyjULQePnSk6faZQ-37" target="qyMsKyjULQePnSk6faZQ-25" edge="1">
          <mxGeometry relative="1" as="geometry" />
        </mxCell>
        <mxCell id="qyMsKyjULQePnSk6faZQ-37" value="&lt;b&gt;&lt;font face=&quot;Times New Roman&quot;&gt;V&lt;span style=&quot;font-size: 10px;&quot;&gt;&lt;sub&gt;2&lt;/sub&gt;&lt;/span&gt;&lt;/font&gt;&lt;/b&gt;" style="rounded=0;whiteSpace=wrap;html=1;fillColor=#dae8fc;strokeColor=#6c8ebf;" parent="1" vertex="1">
          <mxGeometry x="530" y="430" width="30" height="30" as="geometry" />
        </mxCell>
        <mxCell id="qyMsKyjULQePnSk6faZQ-41" style="edgeStyle=orthogonalEdgeStyle;rounded=0;orthogonalLoop=1;jettySize=auto;html=1;exitX=0.5;exitY=0;exitDx=0;exitDy=0;entryX=0.5;entryY=1;entryDx=0;entryDy=0;fontFamily=Times New Roman;" parent="1" source="qyMsKyjULQePnSk6faZQ-39" target="qyMsKyjULQePnSk6faZQ-24" edge="1">
          <mxGeometry relative="1" as="geometry" />
        </mxCell>
        <mxCell id="qyMsKyjULQePnSk6faZQ-39" value="" style="rounded=0;whiteSpace=wrap;html=1;fillColor=#dae8fc;strokeColor=#6c8ebf;" parent="1" vertex="1">
          <mxGeometry x="330" y="430" width="30" height="30" as="geometry" />
        </mxCell>
        <mxCell id="qyMsKyjULQePnSk6faZQ-40" value="" style="shape=flexArrow;endArrow=classic;html=1;rounded=0;fontFamily=Times New Roman;endWidth=10.833333333333334;endSize=4.500000000000001;" parent="1" edge="1">
          <mxGeometry width="50" height="50" relative="1" as="geometry">
            <mxPoint x="330" y="445.58" as="sourcePoint" />
            <mxPoint x="360" y="445.58" as="targetPoint" />
          </mxGeometry>
        </mxCell>
        <mxCell id="qyMsKyjULQePnSk6faZQ-73" value="" style="endArrow=none;html=1;rounded=0;fontFamily=Times New Roman;arcSize=10;" parent="1" edge="1">
          <mxGeometry width="50" height="50" relative="1" as="geometry">
            <mxPoint x="344.58" y="300" as="sourcePoint" />
            <mxPoint x="345" y="260" as="targetPoint" />
          </mxGeometry>
        </mxCell>
        <mxCell id="qyMsKyjULQePnSk6faZQ-75" value="" style="endArrow=none;html=1;rounded=0;fontFamily=Times New Roman;" parent="1" edge="1">
          <mxGeometry width="50" height="50" relative="1" as="geometry">
            <mxPoint x="65" y="260" as="sourcePoint" />
            <mxPoint x="345" y="260" as="targetPoint" />
          </mxGeometry>
        </mxCell>
        <mxCell id="qyMsKyjULQePnSk6faZQ-77" value="" style="endArrow=classic;html=1;rounded=0;fontFamily=Times New Roman;entryX=0.5;entryY=0;entryDx=0;entryDy=0;" parent="1" target="qyMsKyjULQePnSk6faZQ-3" edge="1">
          <mxGeometry width="50" height="50" relative="1" as="geometry">
            <mxPoint x="114.58000000000001" y="260" as="sourcePoint" />
            <mxPoint x="114.58000000000001" y="290" as="targetPoint" />
          </mxGeometry>
        </mxCell>
        <mxCell id="qyMsKyjULQePnSk6faZQ-80" value="" style="endArrow=classic;html=1;rounded=0;fontFamily=Times New Roman;entryX=0.5;entryY=0;entryDx=0;entryDy=0;" parent="1" edge="1">
          <mxGeometry width="50" height="50" relative="1" as="geometry">
            <mxPoint x="215" y="220" as="sourcePoint" />
            <mxPoint x="215" y="260" as="targetPoint" />
          </mxGeometry>
        </mxCell>
        <mxCell id="qyMsKyjULQePnSk6faZQ-82" value="" style="endArrow=none;html=1;rounded=0;fontFamily=Times New Roman;" parent="1" edge="1">
          <mxGeometry width="50" height="50" relative="1" as="geometry">
            <mxPoint x="65" y="220" as="sourcePoint" />
            <mxPoint x="396" y="219" as="targetPoint" />
          </mxGeometry>
        </mxCell>
        <mxCell id="qyMsKyjULQePnSk6faZQ-83" value="" style="endArrow=classic;html=1;rounded=0;fontFamily=Times New Roman;entryX=0.5;entryY=0;entryDx=0;entryDy=0;" parent="1" edge="1">
          <mxGeometry width="50" height="50" relative="1" as="geometry">
            <mxPoint x="263" y="179" as="sourcePoint" />
            <mxPoint x="263" y="219" as="targetPoint" />
          </mxGeometry>
        </mxCell>
        <mxCell id="qyMsKyjULQePnSk6faZQ-84" value="" style="endArrow=none;html=1;rounded=0;fontFamily=Times New Roman;" parent="1" edge="1">
          <mxGeometry width="50" height="50" relative="1" as="geometry">
            <mxPoint x="65" y="180" as="sourcePoint" />
            <mxPoint x="445" y="180" as="targetPoint" />
          </mxGeometry>
        </mxCell>
        <mxCell id="qyMsKyjULQePnSk6faZQ-85" value="" style="endArrow=classic;html=1;rounded=0;fontFamily=Times New Roman;entryX=0.5;entryY=0;entryDx=0;entryDy=0;" parent="1" edge="1">
          <mxGeometry width="50" height="50" relative="1" as="geometry">
            <mxPoint x="165" y="140" as="sourcePoint" />
            <mxPoint x="165" y="180" as="targetPoint" />
          </mxGeometry>
        </mxCell>
        <mxCell id="qyMsKyjULQePnSk6faZQ-86" value="" style="endArrow=none;html=1;rounded=0;fontFamily=Times New Roman;" parent="1" edge="1">
          <mxGeometry width="50" height="50" relative="1" as="geometry">
            <mxPoint x="65" y="140" as="sourcePoint" />
            <mxPoint x="496" y="140" as="targetPoint" />
          </mxGeometry>
        </mxCell>
        <mxCell id="qyMsKyjULQePnSk6faZQ-87" value="" style="endArrow=classic;html=1;rounded=0;fontFamily=Times New Roman;entryX=0.5;entryY=0;entryDx=0;entryDy=0;" parent="1" edge="1">
          <mxGeometry width="50" height="50" relative="1" as="geometry">
            <mxPoint x="64.58" y="100" as="sourcePoint" />
            <mxPoint x="64.58" y="140" as="targetPoint" />
          </mxGeometry>
        </mxCell>
        <mxCell id="qyMsKyjULQePnSk6faZQ-88" value="" style="endArrow=none;html=1;rounded=0;fontFamily=Times New Roman;" parent="1" edge="1">
          <mxGeometry width="50" height="50" relative="1" as="geometry">
            <mxPoint x="65" y="100" as="sourcePoint" />
            <mxPoint x="545" y="100" as="targetPoint" />
          </mxGeometry>
        </mxCell>
        <mxCell id="qyMsKyjULQePnSk6faZQ-90" value="" style="endArrow=none;html=1;rounded=0;fontFamily=Times New Roman;arcSize=10;" parent="1" edge="1">
          <mxGeometry width="50" height="50" relative="1" as="geometry">
            <mxPoint x="394.5799999999999" y="300" as="sourcePoint" />
            <mxPoint x="395" y="220" as="targetPoint" />
          </mxGeometry>
        </mxCell>
        <mxCell id="qyMsKyjULQePnSk6faZQ-91" value="" style="endArrow=baseDash;html=1;rounded=0;fontFamily=Times New Roman;endFill=0;" parent="1" edge="1">
          <mxGeometry width="50" height="50" relative="1" as="geometry">
            <mxPoint x="64.58000000000015" y="260" as="sourcePoint" />
            <mxPoint x="64.58" y="285" as="targetPoint" />
          </mxGeometry>
        </mxCell>
        <mxCell id="qyMsKyjULQePnSk6faZQ-92" value="" style="endArrow=baseDash;html=1;rounded=0;fontFamily=Times New Roman;endFill=0;" parent="1" edge="1">
          <mxGeometry width="50" height="50" relative="1" as="geometry">
            <mxPoint x="165" y="261" as="sourcePoint" />
            <mxPoint x="165" y="285" as="targetPoint" />
          </mxGeometry>
        </mxCell>
        <mxCell id="qyMsKyjULQePnSk6faZQ-93" value="" style="endArrow=baseDash;html=1;rounded=0;fontFamily=Times New Roman;endFill=0;" parent="1" edge="1">
          <mxGeometry width="50" height="50" relative="1" as="geometry">
            <mxPoint x="215" y="260" as="sourcePoint" />
            <mxPoint x="215" y="285" as="targetPoint" />
          </mxGeometry>
        </mxCell>
        <mxCell id="qyMsKyjULQePnSk6faZQ-94" value="" style="endArrow=baseDash;html=1;rounded=0;fontFamily=Times New Roman;endFill=0;" parent="1" edge="1">
          <mxGeometry width="50" height="50" relative="1" as="geometry">
            <mxPoint x="263" y="259" as="sourcePoint" />
            <mxPoint x="263" y="285" as="targetPoint" />
          </mxGeometry>
        </mxCell>
        <mxCell id="qyMsKyjULQePnSk6faZQ-96" value="" style="endArrow=none;html=1;rounded=0;fontFamily=Times New Roman;arcSize=10;" parent="1" source="qyMsKyjULQePnSk6faZQ-29" edge="1">
          <mxGeometry width="50" height="50" relative="1" as="geometry">
            <mxPoint x="444.5799999999999" y="260" as="sourcePoint" />
            <mxPoint x="445" y="180" as="targetPoint" />
          </mxGeometry>
        </mxCell>
        <mxCell id="qyMsKyjULQePnSk6faZQ-97" value="" style="endArrow=none;html=1;rounded=0;fontFamily=Times New Roman;arcSize=10;" parent="1" edge="1">
          <mxGeometry width="50" height="50" relative="1" as="geometry">
            <mxPoint x="494.58" y="300" as="sourcePoint" />
            <mxPoint x="495" y="140" as="targetPoint" />
          </mxGeometry>
        </mxCell>
        <mxCell id="qyMsKyjULQePnSk6faZQ-98" value="" style="endArrow=none;html=1;rounded=0;fontFamily=Times New Roman;arcSize=10;" parent="1" edge="1">
          <mxGeometry width="50" height="50" relative="1" as="geometry">
            <mxPoint x="544.5799999999999" y="300" as="sourcePoint" />
            <mxPoint x="545" y="100" as="targetPoint" />
          </mxGeometry>
        </mxCell>
        <mxCell id="qyMsKyjULQePnSk6faZQ-99" value="" style="endArrow=baseDash;html=1;rounded=0;fontFamily=Times New Roman;endFill=0;" parent="1" edge="1">
          <mxGeometry width="50" height="50" relative="1" as="geometry">
            <mxPoint x="64.58" y="221" as="sourcePoint" />
            <mxPoint x="64.58" y="246" as="targetPoint" />
          </mxGeometry>
        </mxCell>
        <mxCell id="qyMsKyjULQePnSk6faZQ-100" value="" style="endArrow=baseDash;html=1;rounded=0;fontFamily=Times New Roman;endFill=0;" parent="1" edge="1">
          <mxGeometry width="50" height="50" relative="1" as="geometry">
            <mxPoint x="64.58" y="181" as="sourcePoint" />
            <mxPoint x="64.58" y="206" as="targetPoint" />
          </mxGeometry>
        </mxCell>
        <mxCell id="qyMsKyjULQePnSk6faZQ-101" value="" style="endArrow=baseDash;html=1;rounded=0;fontFamily=Times New Roman;endFill=0;" parent="1" edge="1">
          <mxGeometry width="50" height="50" relative="1" as="geometry">
            <mxPoint x="64.58" y="140" as="sourcePoint" />
            <mxPoint x="64.58" y="165" as="targetPoint" />
          </mxGeometry>
        </mxCell>
        <mxCell id="qyMsKyjULQePnSk6faZQ-104" value="" style="endArrow=baseDash;html=1;rounded=0;fontFamily=Times New Roman;endFill=0;" parent="1" edge="1">
          <mxGeometry width="50" height="50" relative="1" as="geometry">
            <mxPoint x="114.58" y="221" as="sourcePoint" />
            <mxPoint x="114.58" y="246" as="targetPoint" />
          </mxGeometry>
        </mxCell>
        <mxCell id="qyMsKyjULQePnSk6faZQ-105" value="" style="endArrow=baseDash;html=1;rounded=0;fontFamily=Times New Roman;endFill=0;" parent="1" edge="1">
          <mxGeometry width="50" height="50" relative="1" as="geometry">
            <mxPoint x="114.58" y="179" as="sourcePoint" />
            <mxPoint x="114.58" y="204" as="targetPoint" />
          </mxGeometry>
        </mxCell>
        <mxCell id="qyMsKyjULQePnSk6faZQ-106" value="" style="endArrow=baseDash;html=1;rounded=0;fontFamily=Times New Roman;endFill=0;" parent="1" edge="1">
          <mxGeometry width="50" height="50" relative="1" as="geometry">
            <mxPoint x="114.58" y="141" as="sourcePoint" />
            <mxPoint x="114.58" y="166" as="targetPoint" />
          </mxGeometry>
        </mxCell>
        <mxCell id="qyMsKyjULQePnSk6faZQ-107" value="" style="endArrow=baseDash;html=1;rounded=0;fontFamily=Times New Roman;endFill=0;" parent="1" edge="1">
          <mxGeometry width="50" height="50" relative="1" as="geometry">
            <mxPoint x="114.58" y="100" as="sourcePoint" />
            <mxPoint x="114.58" y="125" as="targetPoint" />
          </mxGeometry>
        </mxCell>
        <mxCell id="qyMsKyjULQePnSk6faZQ-108" value="" style="endArrow=baseDash;html=1;rounded=0;fontFamily=Times New Roman;endFill=0;" parent="1" edge="1">
          <mxGeometry width="50" height="50" relative="1" as="geometry">
            <mxPoint x="165" y="221" as="sourcePoint" />
            <mxPoint x="165" y="245" as="targetPoint" />
          </mxGeometry>
        </mxCell>
        <mxCell id="qyMsKyjULQePnSk6faZQ-109" value="" style="endArrow=baseDash;html=1;rounded=0;fontFamily=Times New Roman;endFill=0;" parent="1" edge="1">
          <mxGeometry width="50" height="50" relative="1" as="geometry">
            <mxPoint x="165" y="180" as="sourcePoint" />
            <mxPoint x="165" y="204" as="targetPoint" />
          </mxGeometry>
        </mxCell>
        <mxCell id="qyMsKyjULQePnSk6faZQ-110" value="" style="endArrow=baseDash;html=1;rounded=0;fontFamily=Times New Roman;endFill=0;" parent="1" edge="1">
          <mxGeometry width="50" height="50" relative="1" as="geometry">
            <mxPoint x="165" y="101" as="sourcePoint" />
            <mxPoint x="165" y="125" as="targetPoint" />
          </mxGeometry>
        </mxCell>
        <mxCell id="qyMsKyjULQePnSk6faZQ-111" value="" style="endArrow=baseDash;html=1;rounded=0;fontFamily=Times New Roman;endFill=0;" parent="1" edge="1">
          <mxGeometry width="50" height="50" relative="1" as="geometry">
            <mxPoint x="215" y="179" as="sourcePoint" />
            <mxPoint x="215" y="204" as="targetPoint" />
          </mxGeometry>
        </mxCell>
        <mxCell id="qyMsKyjULQePnSk6faZQ-112" value="" style="endArrow=baseDash;html=1;rounded=0;fontFamily=Times New Roman;endFill=0;" parent="1" edge="1">
          <mxGeometry width="50" height="50" relative="1" as="geometry">
            <mxPoint x="215" y="141" as="sourcePoint" />
            <mxPoint x="215" y="166" as="targetPoint" />
          </mxGeometry>
        </mxCell>
        <mxCell id="qyMsKyjULQePnSk6faZQ-113" value="" style="endArrow=baseDash;html=1;rounded=0;fontFamily=Times New Roman;endFill=0;" parent="1" edge="1">
          <mxGeometry width="50" height="50" relative="1" as="geometry">
            <mxPoint x="215" y="101" as="sourcePoint" />
            <mxPoint x="215" y="126" as="targetPoint" />
          </mxGeometry>
        </mxCell>
        <mxCell id="qyMsKyjULQePnSk6faZQ-114" value="" style="endArrow=baseDash;html=1;rounded=0;fontFamily=Times New Roman;endFill=0;" parent="1" edge="1">
          <mxGeometry width="50" height="50" relative="1" as="geometry">
            <mxPoint x="263" y="221" as="sourcePoint" />
            <mxPoint x="263" y="247" as="targetPoint" />
          </mxGeometry>
        </mxCell>
        <mxCell id="qyMsKyjULQePnSk6faZQ-115" value="" style="endArrow=baseDash;html=1;rounded=0;fontFamily=Times New Roman;endFill=0;" parent="1" edge="1">
          <mxGeometry width="50" height="50" relative="1" as="geometry">
            <mxPoint x="263" y="142" as="sourcePoint" />
            <mxPoint x="263" y="168" as="targetPoint" />
          </mxGeometry>
        </mxCell>
        <mxCell id="qyMsKyjULQePnSk6faZQ-116" value="" style="endArrow=baseDash;html=1;rounded=0;fontFamily=Times New Roman;endFill=0;" parent="1" edge="1">
          <mxGeometry width="50" height="50" relative="1" as="geometry">
            <mxPoint x="263" y="101" as="sourcePoint" />
            <mxPoint x="263" y="127" as="targetPoint" />
          </mxGeometry>
        </mxCell>
        <mxCell id="qyMsKyjULQePnSk6faZQ-123" value="&lt;b&gt;V&lt;sub&gt;0&lt;/sub&gt;&lt;/b&gt;" style="text;html=1;align=center;verticalAlign=middle;resizable=0;points=[];autosize=1;strokeColor=none;fillColor=none;fontFamily=Times New Roman;fontColor=#000000;" parent="1" vertex="1">
          <mxGeometry x="112" y="281" width="30" height="20" as="geometry" />
        </mxCell>
        <mxCell id="qyMsKyjULQePnSk6faZQ-124" value="&lt;b&gt;V&lt;sub&gt;2&lt;/sub&gt;&lt;/b&gt;" style="text;html=1;align=center;verticalAlign=middle;resizable=0;points=[];autosize=1;strokeColor=none;fillColor=none;fontFamily=Times New Roman;fontColor=#000000;" parent="1" vertex="1">
          <mxGeometry x="213" y="241" width="30" height="20" as="geometry" />
        </mxCell>
        <mxCell id="qyMsKyjULQePnSk6faZQ-126" value="&lt;b&gt;V&lt;sub&gt;3&lt;/sub&gt;&lt;/b&gt;" style="text;html=1;align=center;verticalAlign=middle;resizable=0;points=[];autosize=1;strokeColor=none;fillColor=none;fontFamily=Times New Roman;fontColor=#FF0000;" parent="1" vertex="1">
          <mxGeometry x="260" y="200" width="30" height="20" as="geometry" />
        </mxCell>
        <mxCell id="qyMsKyjULQePnSk6faZQ-127" value="&lt;b&gt;V&lt;sub&gt;1&lt;/sub&gt;&lt;/b&gt;" style="text;html=1;align=center;verticalAlign=middle;resizable=0;points=[];autosize=1;strokeColor=none;fillColor=none;fontFamily=Times New Roman;fontColor=#FF0000;" parent="1" vertex="1">
          <mxGeometry x="160" y="160" width="30" height="20" as="geometry" />
        </mxCell>
        <mxCell id="qyMsKyjULQePnSk6faZQ-131" value="&lt;b&gt;V&lt;sub&gt;1&lt;/sub&gt;&lt;/b&gt;" style="text;html=1;align=center;verticalAlign=middle;resizable=0;points=[];autosize=1;strokeColor=none;fillColor=none;fontFamily=Times New Roman;fontColor=#000000;" parent="1" vertex="1">
          <mxGeometry x="160" y="160" width="30" height="20" as="geometry" />
        </mxCell>
        <mxCell id="qyMsKyjULQePnSk6faZQ-132" value="&lt;b&gt;V&lt;sub&gt;3&lt;/sub&gt;&lt;/b&gt;" style="text;html=1;align=center;verticalAlign=middle;resizable=0;points=[];autosize=1;strokeColor=none;fillColor=none;fontFamily=Times New Roman;fontColor=#000000;" parent="1" vertex="1">
          <mxGeometry x="260" y="200" width="30" height="20" as="geometry" />
        </mxCell>
        <mxCell id="qyMsKyjULQePnSk6faZQ-133" value="&lt;b&gt;softmax&lt;/b&gt;" style="text;html=1;align=center;verticalAlign=middle;resizable=0;points=[];autosize=1;strokeColor=none;fillColor=none;fontFamily=Times New Roman;fontColor=#000000;" parent="1" vertex="1">
          <mxGeometry x="292" y="240" width="60" height="20" as="geometry" />
        </mxCell>
        <mxCell id="qyMsKyjULQePnSk6faZQ-134" value="&lt;b&gt;softmax&lt;/b&gt;" style="text;html=1;align=center;verticalAlign=middle;resizable=0;points=[];autosize=1;strokeColor=none;fillColor=none;fontFamily=Times New Roman;fontColor=#000000;" parent="1" vertex="1">
          <mxGeometry x="340" y="200" width="60" height="20" as="geometry" />
        </mxCell>
        <mxCell id="qyMsKyjULQePnSk6faZQ-135" value="&lt;b&gt;softmax&lt;/b&gt;" style="text;html=1;align=center;verticalAlign=middle;resizable=0;points=[];autosize=1;strokeColor=none;fillColor=none;fontFamily=Times New Roman;fontColor=#000000;" parent="1" vertex="1">
          <mxGeometry x="390" y="160" width="60" height="20" as="geometry" />
        </mxCell>
        <mxCell id="qyMsKyjULQePnSk6faZQ-136" value="&lt;b&gt;softmax&lt;/b&gt;" style="text;html=1;align=center;verticalAlign=middle;resizable=0;points=[];autosize=1;strokeColor=none;fillColor=none;fontFamily=Times New Roman;fontColor=#000000;" parent="1" vertex="1">
          <mxGeometry x="440" y="120" width="60" height="20" as="geometry" />
        </mxCell>
        <mxCell id="qyMsKyjULQePnSk6faZQ-137" value="&lt;b&gt;softmax&lt;/b&gt;" style="text;html=1;align=center;verticalAlign=middle;resizable=0;points=[];autosize=1;strokeColor=none;fillColor=none;fontFamily=Times New Roman;fontColor=#000000;" parent="1" vertex="1">
          <mxGeometry x="490" y="80" width="60" height="20" as="geometry" />
        </mxCell>
        <mxCell id="qyMsKyjULQePnSk6faZQ-149" style="edgeStyle=orthogonalEdgeStyle;rounded=0;orthogonalLoop=1;jettySize=auto;html=1;exitX=0.5;exitY=0;exitDx=0;exitDy=0;entryX=0.5;entryY=1;entryDx=0;entryDy=0;fontFamily=Times New Roman;fontColor=#000000;endArrow=classic;endFill=1;strokeColor=#000000;" parent="1" source="qyMsKyjULQePnSk6faZQ-144" target="qyMsKyjULQePnSk6faZQ-145" edge="1">
          <mxGeometry relative="1" as="geometry" />
        </mxCell>
        <mxCell id="qyMsKyjULQePnSk6faZQ-144" value="" style="rounded=0;whiteSpace=wrap;html=1;fillColor=#d5e8d4;strokeColor=#82b366;" parent="1" vertex="1">
          <mxGeometry x="630" y="335.5" width="30" height="30" as="geometry" />
        </mxCell>
        <mxCell id="qyMsKyjULQePnSk6faZQ-150" style="edgeStyle=orthogonalEdgeStyle;rounded=0;orthogonalLoop=1;jettySize=auto;html=1;exitX=0.5;exitY=0;exitDx=0;exitDy=0;entryX=0.5;entryY=1;entryDx=0;entryDy=0;fontFamily=Times New Roman;fontColor=#000000;endArrow=classic;endFill=1;strokeColor=#000000;" parent="1" source="qyMsKyjULQePnSk6faZQ-145" target="qyMsKyjULQePnSk6faZQ-146" edge="1">
          <mxGeometry relative="1" as="geometry" />
        </mxCell>
        <mxCell id="qyMsKyjULQePnSk6faZQ-145" value="" style="rounded=0;whiteSpace=wrap;html=1;fillColor=#d5e8d4;strokeColor=#82b366;" parent="1" vertex="1">
          <mxGeometry x="630" y="280.5" width="30" height="30" as="geometry" />
        </mxCell>
        <mxCell id="qyMsKyjULQePnSk6faZQ-154" style="edgeStyle=orthogonalEdgeStyle;rounded=0;orthogonalLoop=1;jettySize=auto;html=1;exitX=0.5;exitY=0;exitDx=0;exitDy=0;entryX=0.5;entryY=1;entryDx=0;entryDy=0;fontFamily=Times New Roman;fontColor=#000000;endArrow=classic;endFill=1;strokeColor=#000000;" parent="1" source="qyMsKyjULQePnSk6faZQ-146" target="qyMsKyjULQePnSk6faZQ-153" edge="1">
          <mxGeometry relative="1" as="geometry" />
        </mxCell>
        <mxCell id="qyMsKyjULQePnSk6faZQ-146" value="" style="rounded=0;whiteSpace=wrap;html=1;fillColor=#d5e8d4;strokeColor=#82b366;" parent="1" vertex="1">
          <mxGeometry x="630" y="221.5" width="30" height="30" as="geometry" />
        </mxCell>
        <mxCell id="qyMsKyjULQePnSk6faZQ-155" style="edgeStyle=orthogonalEdgeStyle;rounded=0;orthogonalLoop=1;jettySize=auto;html=1;exitX=0.5;exitY=0;exitDx=0;exitDy=0;fontFamily=Times New Roman;fontColor=#000000;endArrow=classic;endFill=1;strokeColor=#000000;" parent="1" source="qyMsKyjULQePnSk6faZQ-153" edge="1">
          <mxGeometry relative="1" as="geometry">
            <mxPoint x="645" y="133" as="targetPoint" />
          </mxGeometry>
        </mxCell>
        <mxCell id="qyMsKyjULQePnSk6faZQ-153" value="" style="rounded=0;whiteSpace=wrap;html=1;fillColor=#d5e8d4;strokeColor=#82b366;" parent="1" vertex="1">
          <mxGeometry x="630" y="161.5" width="30" height="30" as="geometry" />
        </mxCell>
        <mxCell id="qyMsKyjULQePnSk6faZQ-156" value="&lt;b&gt;prediction&lt;/b&gt;" style="text;html=1;align=center;verticalAlign=middle;resizable=0;points=[];autosize=1;strokeColor=none;fillColor=none;fontFamily=Times New Roman;fontColor=#000000;" parent="1" vertex="1">
          <mxGeometry x="610" y="116" width="70" height="20" as="geometry" />
        </mxCell>
        <mxCell id="qyMsKyjULQePnSk6faZQ-161" value="" style="endArrow=none;dashed=1;html=1;rounded=0;fontFamily=Times New Roman;fontColor=#000000;strokeColor=#000000;" parent="1" edge="1">
          <mxGeometry width="50" height="50" relative="1" as="geometry">
            <mxPoint x="30" y="480" as="sourcePoint" />
            <mxPoint x="30" y="30" as="targetPoint" />
          </mxGeometry>
        </mxCell>
        <mxCell id="qyMsKyjULQePnSk6faZQ-163" value="" style="endArrow=none;dashed=1;html=1;rounded=0;fontFamily=Times New Roman;fontColor=#000000;strokeColor=#000000;" parent="1" edge="1">
          <mxGeometry width="50" height="50" relative="1" as="geometry">
            <mxPoint x="30" y="30" as="sourcePoint" />
            <mxPoint x="580" y="30" as="targetPoint" />
          </mxGeometry>
        </mxCell>
        <mxCell id="qyMsKyjULQePnSk6faZQ-164" value="" style="endArrow=none;dashed=1;html=1;rounded=0;fontFamily=Times New Roman;fontColor=#000000;strokeColor=#000000;" parent="1" edge="1">
          <mxGeometry width="50" height="50" relative="1" as="geometry">
            <mxPoint x="580" y="477" as="sourcePoint" />
            <mxPoint x="580" y="27" as="targetPoint" />
          </mxGeometry>
        </mxCell>
        <mxCell id="qyMsKyjULQePnSk6faZQ-165" value="" style="endArrow=none;dashed=1;html=1;rounded=0;fontFamily=Times New Roman;fontColor=#000000;strokeColor=#000000;" parent="1" edge="1">
          <mxGeometry width="50" height="50" relative="1" as="geometry">
            <mxPoint x="30" y="480" as="sourcePoint" />
            <mxPoint x="580" y="480" as="targetPoint" />
          </mxGeometry>
        </mxCell>
        <mxCell id="qyMsKyjULQePnSk6faZQ-166" value="Actor" style="edgeLabel;html=1;align=center;verticalAlign=middle;resizable=0;points=[];fontFamily=Times New Roman;fontColor=#000000;fontSize=19;fontStyle=1" parent="qyMsKyjULQePnSk6faZQ-165" vertex="1" connectable="0">
          <mxGeometry x="0.2625" y="-2" relative="1" as="geometry">
            <mxPoint x="-74" as="offset" />
          </mxGeometry>
        </mxCell>
        <mxCell id="qyMsKyjULQePnSk6faZQ-167" value="" style="endArrow=none;dashed=1;html=1;rounded=0;fontFamily=Times New Roman;fontColor=#000000;strokeColor=#000000;" parent="1" edge="1">
          <mxGeometry width="50" height="50" relative="1" as="geometry">
            <mxPoint x="610" y="396" as="sourcePoint" />
            <mxPoint x="610" y="98.5" as="targetPoint" />
          </mxGeometry>
        </mxCell>
        <mxCell id="qyMsKyjULQePnSk6faZQ-168" value="" style="endArrow=none;dashed=1;html=1;rounded=0;fontFamily=Times New Roman;fontColor=#000000;strokeColor=#000000;" parent="1" edge="1">
          <mxGeometry width="50" height="50" relative="1" as="geometry">
            <mxPoint x="610" y="95.5" as="sourcePoint" />
            <mxPoint x="690" y="95.5" as="targetPoint" />
          </mxGeometry>
        </mxCell>
        <mxCell id="qyMsKyjULQePnSk6faZQ-169" value="" style="endArrow=none;dashed=1;html=1;rounded=0;fontFamily=Times New Roman;fontColor=#000000;strokeColor=#000000;" parent="1" edge="1">
          <mxGeometry width="50" height="50" relative="1" as="geometry">
            <mxPoint x="690" y="396" as="sourcePoint" />
            <mxPoint x="690" y="93.75" as="targetPoint" />
          </mxGeometry>
        </mxCell>
        <mxCell id="qyMsKyjULQePnSk6faZQ-170" value="" style="endArrow=none;dashed=1;html=1;rounded=0;fontFamily=Times New Roman;fontColor=#000000;strokeColor=#000000;" parent="1" edge="1">
          <mxGeometry width="50" height="50" relative="1" as="geometry">
            <mxPoint x="610" y="396" as="sourcePoint" />
            <mxPoint x="690" y="396" as="targetPoint" />
          </mxGeometry>
        </mxCell>
        <mxCell id="qyMsKyjULQePnSk6faZQ-171" value="Critic" style="edgeLabel;html=1;align=center;verticalAlign=middle;resizable=0;points=[];fontFamily=Times New Roman;fontColor=#000000;fontSize=19;fontStyle=1" parent="1" vertex="1" connectable="0">
          <mxGeometry x="509" y="480" as="geometry">
            <mxPoint x="143" y="-86" as="offset" />
          </mxGeometry>
        </mxCell>
        <mxCell id="Wp7N4a7BclqFbDQ2kX8e-1" value="state" style="text;html=1;align=center;verticalAlign=middle;resizable=0;points=[];autosize=1;strokeColor=none;fillColor=none;fontFamily=Times New Roman;fontStyle=1" parent="1" vertex="1">
          <mxGeometry x="575" y="350" width="40" height="20" as="geometry" />
        </mxCell>
      </root>
    </mxGraphModel>
  </diagram>
</mxfile>
